<svg height="1950" width="720" xmlns="http://www.w3.org/2000/svg">
<rect height="1950" fill="#555" width="720"></rect>
<text fill="#7f7" font-family="Courier New" font-size="12" xml:space="preserve">
<tspan x="10" y="26"></tspan>
<tspan x="10" y="42">&gt; npmdoc-swagger-client@0.0.3 test /home/travis/build/npmdoc/node-npmdoc-swagger-client</tspan>
<tspan x="10" y="58">&gt; (set -e; export PORT=$(utility2 shServerPortRandom); utility2 test test.js)</tspan>
<tspan x="10" y="74"></tspan>
<tspan x="10" y="90"></tspan>
<tspan x="10" y="106">[MODE_BUILD=npmTest] - 2017-03-26T11:02:36Z - npm-testing /home/travis/build/npmdoc/node-npmdoc-\</tspan>
<tspan x="10" y="122">swagger-client</tspan>
<tspan x="10" y="138"></tspan>
<tspan x="10" y="154"></tspan>
<tspan x="10" y="170">covering $ /home/travis/.nvm/versions/node/v6.10.1/bin/node /home/travis/build/npmdoc/node-npmdo\</tspan>
<tspan x="10" y="186">c-swagger-client/test.js</tspan>
<tspan x="10" y="202">merging file:///home/travis/build/npmdoc/node-npmdoc-swagger-client/tmp/build/test-report.json t\</tspan>
<tspan x="10" y="218">o test-report</tspan>
<tspan x="10" y="234">&gt; server listening on http-port 60996</tspan>
<tspan x="10" y="250">created apidoc file:///home/travis/build/npmdoc/node-npmdoc-swagger-client/tmp/build/apidoc.html</tspan>
<tspan x="10" y="266"></tspan>
<tspan x="10" y="282"></tspan>
<tspan x="10" y="298">browserTest - created electron entry-page /home/travis/build/npmdoc/node-npmdoc-swagger-client/t\</tspan>
<tspan x="10" y="314">mp/electron.15b0a483af90.26c87cf23f188.html</tspan>
<tspan x="10" y="330"></tspan>
<tspan x="10" y="346">[node test-case 1 of 6 passed] - testCase_buildLib_default</tspan>
<tspan x="10" y="362">[node test-case 2 of 6 passed] - testCase_buildReadme_default</tspan>
<tspan x="10" y="378">[node test-case 3 of 6 passed] - testCase_buildTest_default</tspan>
<tspan x="10" y="394"></tspan>
<tspan x="10" y="410">browserTest - created electron entry-page /home/travis/build/npmdoc/node-npmdoc-swagger-client/t\</tspan>
<tspan x="10" y="426">mp/electron.15b0a483b470.4e7f4fbd86433.html</tspan>
<tspan x="10" y="442"></tspan>
<tspan x="10" y="458">Xlib:  extension "RANDR" missing on display ":99.0".</tspan>
<tspan x="10" y="474">Xlib:  extension "RANDR" missing on display ":99.0".</tspan>
<tspan x="10" y="490">&gt; server listening on http-port 37322</tspan>
<tspan x="10" y="506">merging file:///home/travis/build/npmdoc/node-npmdoc-swagger-client/tmp/build/test-report.json t\</tspan>
<tspan x="10" y="522">o test-report</tspan>
<tspan x="10" y="538">Xlib:  extension "RANDR" missing on display ":99.0".</tspan>
<tspan x="10" y="554">[4877:0326/110238:WARNING:audio_manager.cc(314)] Multiple instances of AudioManager detected</tspan>
<tspan x="10" y="570">[4877:0326/110238:WARNING:audio_manager.cc(275)] Multiple instances of AudioManager detected</tspan>
<tspan x="10" y="586">[4904:0326/110238:ERROR:sandbox_linux.cc(343)] InitializeSandbox() called with multiple threads \</tspan>
<tspan x="10" y="602">in process gpu-process. </tspan>
<tspan x="10" y="618">merging file:///home/travis/build/npmdoc/node-npmdoc-swagger-client/tmp/build/test-report.json t\</tspan>
<tspan x="10" y="634">o test-report</tspan>
<tspan x="10" y="650">Xlib:  extension "RANDR" missing on display ":99.0".</tspan>
<tspan x="10" y="666">[4881:0326/110238:WARNING:audio_manager.cc(314)] Multiple instances of AudioManager detected</tspan>
<tspan x="10" y="682">[4881:0326/110238:WARNING:audio_manager.cc(275)] Multiple instances of AudioManager detected</tspan>
<tspan x="10" y="698">[4934:0326/110238:ERROR:sandbox_linux.cc(343)] InitializeSandbox() called with multiple threads \</tspan>
<tspan x="10" y="714">in process gpu-process. </tspan>
<tspan x="10" y="730">[4881:0326/110238:ERROR:browser_gpu_channel_host_factory.cc(131)] Failed to create channel.</tspan>
<tspan x="10" y="746"></tspan>
<tspan x="10" y="762">browserTest - opened url file:///home/travis/build/npmdoc/node-npmdoc-swagger-client/tmp/build/a\</tspan>
<tspan x="10" y="778">pidoc.html</tspan>
<tspan x="10" y="794"></tspan>
<tspan x="10" y="810"></tspan>
<tspan x="10" y="826">browserTest - opened url http://127.0.0.1:60996?modeTest=1</tspan>
<tspan x="10" y="842"></tspan>
<tspan x="10" y="858">[4881:0326/110240:INFO:CONSOLE(203)] "----------|-----------|-----------|-----------|-----------\</tspan>
<tspan x="10" y="874">|</tspan>
<tspan x="10" y="890">File      |   % Stmts |% Branches |   % Funcs |   % Lines |</tspan>
<tspan x="10" y="906">----------|-----------|-----------|-----------|-----------|</tspan>
<tspan x="10" y="922">----------|-----------|-----------|-----------|-----------|</tspan>
<tspan x="10" y="938">All files |       100 |       100 |       100 |       100 |</tspan>
<tspan x="10" y="954">----------|-----------|-----------|-----------|-----------|</tspan>
<tspan x="10" y="970">", source: file:///home/travis/build/npmdoc/node-npmdoc-swagger-client/tmp/electron.15b0a483b470\</tspan>
<tspan x="10" y="986">.4e7f4fbd86433.html (203)</tspan>
<tspan x="10" y="1002">[4881:0326/110240:INFO:CONSOLE(203)] "created coverage file:///tmp/build/coverage.html/index.htm\</tspan>
<tspan x="10" y="1018">l", source: file:///home/travis/build/npmdoc/node-npmdoc-swagger-client/tmp/electron.15b0a483b47\</tspan>
<tspan x="10" y="1034">0.4e7f4fbd86433.html (203)</tspan>
<tspan x="10" y="1050">[node test-case 4 of 6 passed] - testCase_buildApp_default</tspan>
<tspan x="10" y="1066"></tspan>
<tspan x="10" y="1082">browserTest - created screen-capture file:///home/travis/build/npmdoc/node-npmdoc-swagger-client\</tspan>
<tspan x="10" y="1098">/tmp/build/screen-capture.npmTest.browser._2Fhome_2Ftravis_2Fbuild_2Fnpmdoc_2Fnode-npmdoc-swagge\</tspan>
<tspan x="10" y="1114">r-client_2Ftmp_2Fbuild_2Fapidoc.html.png</tspan>
<tspan x="10" y="1130"></tspan>
<tspan x="10" y="1146"></tspan>
<tspan x="10" y="1162">browserTest - exit-code 0 - file:///home/travis/build/npmdoc/node-npmdoc-swagger-client/tmp/buil\</tspan>
<tspan x="10" y="1178">d/apidoc.html</tspan>
<tspan x="10" y="1194"></tspan>
<tspan x="10" y="1210">[node test-case 5 of 6 passed] - testCase_buildApidoc_default</tspan>
<tspan x="10" y="1226"></tspan>
<tspan x="10" y="1242">browserTest - created screen-capture file:///home/travis/build/npmdoc/node-npmdoc-swagger-client\</tspan>
<tspan x="10" y="1258">/tmp/build/screen-capture.npmTest.browser..png</tspan>
<tspan x="10" y="1274"></tspan>
<tspan x="10" y="1290"></tspan>
<tspan x="10" y="1306">browserTest - exit-code 0 - http://127.0.0.1:60996?modeTest=1</tspan>
<tspan x="10" y="1322"></tspan>
<tspan x="10" y="1338"></tspan>
<tspan x="10" y="1354">browserTest - merged coverage from /home/travis/build/npmdoc/node-npmdoc-swagger-client/tmp/cove\</tspan>
<tspan x="10" y="1370">rage.npmTest.browser.%2F.json</tspan>
<tspan x="10" y="1386"></tspan>
<tspan x="10" y="1402"></tspan>
<tspan x="10" y="1418">browserTest - merging test-report from /home/travis/build/npmdoc/node-npmdoc-swagger-client/tmp/\</tspan>
<tspan x="10" y="1434">test-report.npmTest.browser.%2F.json</tspan>
<tspan x="10" y="1450"></tspan>
<tspan x="10" y="1466">[node test-case 6 of 6 passed] - testCase_webpage_default</tspan>
<tspan x="10" y="1482">-----------------------------------|-----------|-----------|-----------|-----------|</tspan>
<tspan x="10" y="1498">File                               |   % Stmts |% Branches |   % Funcs |   % Lines |</tspan>
<tspan x="10" y="1514">-----------------------------------|-----------|-----------|-----------|-----------|</tspan>
<tspan x="10" y="1530">   node-npmdoc-swagger-client/     |       100 |       100 |       100 |       100 |</tspan>
<tspan x="10" y="1546">      example.js                   |       100 |       100 |       100 |       100 |</tspan>
<tspan x="10" y="1562">      lib.npmdoc_swagger_client.js |       100 |       100 |       100 |       100 |</tspan>
<tspan x="10" y="1578">      test.js                      |       100 |       100 |       100 |       100 |</tspan>
<tspan x="10" y="1594">-----------------------------------|-----------|-----------|-----------|-----------|</tspan>
<tspan x="10" y="1610">All files                          |       100 |       100 |       100 |       100 |</tspan>
<tspan x="10" y="1626">-----------------------------------|-----------|-----------|-----------|-----------|</tspan>
<tspan x="10" y="1642"></tspan>
<tspan x="10" y="1658">created coverage file:///home/travis/build/npmdoc/node-npmdoc-swagger-client/tmp/build/coverage.\</tspan>
<tspan x="10" y="1674">html/index.html</tspan>
<tspan x="10" y="1690">merging file:///home/travis/build/npmdoc/node-npmdoc-swagger-client/tmp/build/test-report.json t\</tspan>
<tspan x="10" y="1706">o test-report</tspan>
<tspan x="10" y="1722"></tspan>
<tspan x="10" y="1738">-------------------------------------------------------</tspan>
<tspan x="10" y="1754">| test-report - buildNpmdoc - node - linux v6.10.1 - 2017-03-26T11:02:07.242Z</tspan>
<tspan x="10" y="1770">|   35374 ms            0 failed        6 passed      |</tspan>
<tspan x="10" y="1786">-------------------------------------------------------</tspan>
<tspan x="10" y="1802"></tspan>
<tspan x="10" y="1818">created test-report file:///home/travis/build/npmdoc/node-npmdoc-swagger-client/tmp/build/test-r\</tspan>
<tspan x="10" y="1834">eport.html</tspan>
<tspan x="10" y="1850"></tspan>
<tspan x="10" y="1866"></tspan>
<tspan x="10" y="1882">npmTest - 0 failed tests</tspan>
<tspan x="10" y="1898"></tspan>
<tspan x="10" y="1914"></tspan>
<tspan x="10" y="1930">[MODE_BUILD=npmTest] - 2017-03-26T11:02:45Z - EXIT_CODE - 0</tspan>
</text>
</svg>
