<svg height="4190" width="720" xmlns="http://www.w3.org/2000/svg">
<rect height="4190" fill="#555" width="720"></rect>
<text fill="#7f7" font-family="Courier New" font-size="12" xml:space="preserve">
<tspan x="10" y="26">47 megabytes installed</tspan>
<tspan x="10" y="42"></tspan>
<tspan x="10" y="58">node_modules</tspan>
<tspan x="10" y="74">└─┬ swagger-client@3.0.4 </tspan>
<tspan x="10" y="90">  ├─┬ babel-runtime@6.23.0 </tspan>
<tspan x="10" y="106">  │ ├── core-js@2.4.1 </tspan>
<tspan x="10" y="122">  │ └── regenerator-runtime@0.10.3 </tspan>
<tspan x="10" y="138">  ├── btoa@1.1.2 </tspan>
<tspan x="10" y="154">  ├── deep-extend@0.4.1 </tspan>
<tspan x="10" y="170">  ├── fast-json-patch@1.1.8 </tspan>
<tspan x="10" y="186">  ├─┬ isomorphic-fetch@2.2.1 </tspan>
<tspan x="10" y="202">  │ ├─┬ node-fetch@1.6.3 </tspan>
<tspan x="10" y="218">  │ │ ├─┬ encoding@0.1.12 </tspan>
<tspan x="10" y="234">  │ │ │ └── iconv-lite@0.4.15 </tspan>
<tspan x="10" y="250">  │ │ └── is-stream@1.1.0 </tspan>
<tspan x="10" y="266">  │ └── whatwg-fetch@2.0.3 </tspan>
<tspan x="10" y="282">  ├─┬ isomorphic-form-data@0.0.1 </tspan>
<tspan x="10" y="298">  │ └─┬ form-data@1.0.1 </tspan>
<tspan x="10" y="314">  │   ├── async@2.3.0 </tspan>
<tspan x="10" y="330">  │   ├─┬ combined-stream@1.0.5 </tspan>
<tspan x="10" y="346">  │   │ └── delayed-stream@1.0.0 </tspan>
<tspan x="10" y="362">  │   └─┬ mime-types@2.1.15 </tspan>
<tspan x="10" y="378">  │     └── mime-db@1.27.0 </tspan>
<tspan x="10" y="394">  ├─┬ js-yaml@3.8.3 </tspan>
<tspan x="10" y="410">  │ ├─┬ argparse@1.0.9 </tspan>
<tspan x="10" y="426">  │ │ └── sprintf-js@1.0.3 </tspan>
<tspan x="10" y="442">  │ └── esprima@3.1.3 </tspan>
<tspan x="10" y="458">  ├── lodash@4.16.2 </tspan>
<tspan x="10" y="474">  ├─┬ node-inspector@0.12.8 </tspan>
<tspan x="10" y="490">  │ ├── async@0.9.2 </tspan>
<tspan x="10" y="506">  │ ├─┬ biased-opener@0.2.8 </tspan>
<tspan x="10" y="522">  │ │ ├─┬ browser-launcher2@0.4.6 </tspan>
<tspan x="10" y="538">  │ │ │ ├── headless@0.1.7 </tspan>
<tspan x="10" y="554">  │ │ │ ├── lodash@2.4.2 </tspan>
<tspan x="10" y="570">  │ │ │ ├─┬ mkdirp@0.5.1 </tspan>
<tspan x="10" y="586">  │ │ │ │ └── minimist@0.0.8 </tspan>
<tspan x="10" y="602">  │ │ │ ├─┬ osenv@0.1.4 </tspan>
<tspan x="10" y="618">  │ │ │ │ ├── os-homedir@1.0.2 </tspan>
<tspan x="10" y="634">  │ │ │ │ └── os-tmpdir@1.0.2 </tspan>
<tspan x="10" y="650">  │ │ │ ├─┬ plist@1.2.0 </tspan>
<tspan x="10" y="666">  │ │ │ │ ├── base64-js@0.0.8 </tspan>
<tspan x="10" y="682">  │ │ │ │ ├── util-deprecate@1.0.2 </tspan>
<tspan x="10" y="698">  │ │ │ │ ├─┬ xmlbuilder@4.0.0 </tspan>
<tspan x="10" y="714">  │ │ │ │ │ └── lodash@3.10.1 </tspan>
<tspan x="10" y="730">  │ │ │ │ └── xmldom@0.1.27 </tspan>
<tspan x="10" y="746">  │ │ │ ├── rimraf@2.2.8 </tspan>
<tspan x="10" y="762">  │ │ │ ├── uid@0.0.2 </tspan>
<tspan x="10" y="778">  │ │ │ └─┬ win-detect-browsers@1.0.2 </tspan>
<tspan x="10" y="794">  │ │ │   ├── after@0.8.2 </tspan>
<tspan x="10" y="810">  │ │ │   ├── xtend@4.0.1 </tspan>
<tspan x="10" y="826">  │ │ │   └── yargs@1.3.3 </tspan>
<tspan x="10" y="842">  │ │ ├── minimist@1.2.0 </tspan>
<tspan x="10" y="858">  │ │ └─┬ x-default-browser@0.3.1 </tspan>
<tspan x="10" y="874">  │ │   └─┬ default-browser-id@1.0.4 </tspan>
<tspan x="10" y="890">  │ │     ├─┬ bplist-parser@0.1.1 </tspan>
<tspan x="10" y="906">  │ │     │ └── big-integer@1.6.19 </tspan>
<tspan x="10" y="922">  │ │     ├─┬ meow@3.7.0 </tspan>
<tspan x="10" y="938">  │ │     │ ├── camelcase-keys@2.1.0 </tspan>
<tspan x="10" y="954">  │ │     │ ├─┬ loud-rejection@1.6.0 </tspan>
<tspan x="10" y="970">  │ │     │ │ └─┬ currently-unhandled@0.4.1 </tspan>
<tspan x="10" y="986">  │ │     │ │   └── array-find-index@1.0.2 </tspan>
<tspan x="10" y="1002">  │ │     │ ├── map-obj@1.0.1 </tspan>
<tspan x="10" y="1018">  │ │     │ ├─┬ normalize-package-data@2.3.6 </tspan>
<tspan x="10" y="1034">  │ │     │ │ ├── hosted-git-info@2.4.1 </tspan>
<tspan x="10" y="1050">  │ │     │ │ ├─┬ is-builtin-module@1.0.0 </tspan>
<tspan x="10" y="1066">  │ │     │ │ │ └── builtin-modules@1.1.1 </tspan>
<tspan x="10" y="1082">  │ │     │ │ └─┬ validate-npm-package-license@3.0.1 </tspan>
<tspan x="10" y="1098">  │ │     │ │   ├─┬ spdx-correct@1.0.2 </tspan>
<tspan x="10" y="1114">  │ │     │ │   │ └── spdx-license-ids@1.2.2 </tspan>
<tspan x="10" y="1130">  │ │     │ │   └── spdx-expression-parse@1.0.4 </tspan>
<tspan x="10" y="1146">  │ │     │ ├── object-assign@4.1.1 </tspan>
<tspan x="10" y="1162">  │ │     │ ├─┬ read-pkg-up@1.0.1 </tspan>
<tspan x="10" y="1178">  │ │     │ │ ├─┬ find-up@1.1.2 </tspan>
<tspan x="10" y="1194">  │ │     │ │ │ ├── path-exists@2.1.0 </tspan>
<tspan x="10" y="1210">  │ │     │ │ │ └─┬ pinkie-promise@2.0.1 </tspan>
<tspan x="10" y="1226">  │ │     │ │ │   └── pinkie@2.0.4 </tspan>
<tspan x="10" y="1242">  │ │     │ │ └─┬ read-pkg@1.1.0 </tspan>
<tspan x="10" y="1258">  │ │     │ │   ├─┬ load-json-file@1.1.0 </tspan>
<tspan x="10" y="1274">  │ │     │ │   │ ├─┬ parse-json@2.2.0 </tspan>
<tspan x="10" y="1290">  │ │     │ │   │ │ └─┬ error-ex@1.3.1 </tspan>
<tspan x="10" y="1306">  │ │     │ │   │ │   └── is-arrayish@0.2.1 </tspan>
<tspan x="10" y="1322">  │ │     │ │   │ ├── pify@2.3.0 </tspan>
<tspan x="10" y="1338">  │ │     │ │   │ └─┬ strip-bom@2.0.0 </tspan>
<tspan x="10" y="1354">  │ │     │ │   │   └── is-utf8@0.2.1 </tspan>
<tspan x="10" y="1370">  │ │     │ │   └── path-type@1.1.0 </tspan>
<tspan x="10" y="1386">  │ │     │ ├─┬ redent@1.0.0 </tspan>
<tspan x="10" y="1402">  │ │     │ │ ├─┬ indent-string@2.1.0 </tspan>
<tspan x="10" y="1418">  │ │     │ │ │ └─┬ repeating@2.0.1 </tspan>
<tspan x="10" y="1434">  │ │     │ │ │   └── is-finite@1.0.2 </tspan>
<tspan x="10" y="1450">  │ │     │ │ └─┬ strip-indent@1.0.1 </tspan>
<tspan x="10" y="1466">  │ │     │ │   └── get-stdin@4.0.1 </tspan>
<tspan x="10" y="1482">  │ │     │ └── trim-newlines@1.0.0 </tspan>
<tspan x="10" y="1498">  │ │     └── untildify@2.1.0 </tspan>
<tspan x="10" y="1514">  │ ├─┬ debug@2.6.3 </tspan>
<tspan x="10" y="1530">  │ │ └── ms@0.7.2 </tspan>
<tspan x="10" y="1546">  │ ├─┬ express@4.15.2 </tspan>
<tspan x="10" y="1562">  │ │ ├─┬ accepts@1.3.3 </tspan>
<tspan x="10" y="1578">  │ │ │ └── negotiator@0.6.1 </tspan>
<tspan x="10" y="1594">  │ │ ├── array-flatten@1.1.1 </tspan>
<tspan x="10" y="1610">  │ │ ├── content-disposition@0.5.2 </tspan>
<tspan x="10" y="1626">  │ │ ├── content-type@1.0.2 </tspan>
<tspan x="10" y="1642">  │ │ ├── cookie@0.3.1 </tspan>
<tspan x="10" y="1658">  │ │ ├── cookie-signature@1.0.6 </tspan>
<tspan x="10" y="1674">  │ │ ├── debug@2.6.1 </tspan>
<tspan x="10" y="1690">  │ │ ├── depd@1.1.0 </tspan>
<tspan x="10" y="1706">  │ │ ├── encodeurl@1.0.1 </tspan>
<tspan x="10" y="1722">  │ │ ├── escape-html@1.0.3 </tspan>
<tspan x="10" y="1738">  │ │ ├── etag@1.8.0 </tspan>
<tspan x="10" y="1754">  │ │ ├─┬ finalhandler@1.0.1 </tspan>
<tspan x="10" y="1770">  │ │ │ └── unpipe@1.0.0 </tspan>
<tspan x="10" y="1786">  │ │ ├── fresh@0.5.0 </tspan>
<tspan x="10" y="1802">  │ │ ├── merge-descriptors@1.0.1 </tspan>
<tspan x="10" y="1818">  │ │ ├── methods@1.1.2 </tspan>
<tspan x="10" y="1834">  │ │ ├─┬ on-finished@2.3.0 </tspan>
<tspan x="10" y="1850">  │ │ │ └── ee-first@1.1.1 </tspan>
<tspan x="10" y="1866">  │ │ ├── parseurl@1.3.1 </tspan>
<tspan x="10" y="1882">  │ │ ├── path-to-regexp@0.1.7 </tspan>
<tspan x="10" y="1898">  │ │ ├─┬ proxy-addr@1.1.4 </tspan>
<tspan x="10" y="1914">  │ │ │ ├── forwarded@0.1.0 </tspan>
<tspan x="10" y="1930">  │ │ │ └── ipaddr.js@1.3.0 </tspan>
<tspan x="10" y="1946">  │ │ ├── range-parser@1.2.0 </tspan>
<tspan x="10" y="1962">  │ │ ├─┬ send@0.15.1 </tspan>
<tspan x="10" y="1978">  │ │ │ ├── debug@2.6.1 </tspan>
<tspan x="10" y="1994">  │ │ │ ├── destroy@1.0.4 </tspan>
<tspan x="10" y="2010">  │ │ │ ├── http-errors@1.6.1 </tspan>
<tspan x="10" y="2026">  │ │ │ └── mime@1.3.4 </tspan>
<tspan x="10" y="2042">  │ │ ├── serve-static@1.12.1 </tspan>
<tspan x="10" y="2058">  │ │ ├── setprototypeof@1.0.3 </tspan>
<tspan x="10" y="2074">  │ │ ├── statuses@1.3.1 </tspan>
<tspan x="10" y="2090">  │ │ ├─┬ type-is@1.6.15 </tspan>
<tspan x="10" y="2106">  │ │ │ └── media-typer@0.3.0 </tspan>
<tspan x="10" y="2122">  │ │ ├── utils-merge@1.0.0 </tspan>
<tspan x="10" y="2138">  │ │ └── vary@1.1.1 </tspan>
<tspan x="10" y="2154">  │ ├─┬ glob@5.0.15 </tspan>
<tspan x="10" y="2170">  │ │ ├─┬ inflight@1.0.6 </tspan>
<tspan x="10" y="2186">  │ │ │ └── wrappy@1.0.2 </tspan>
<tspan x="10" y="2202">  │ │ ├── inherits@2.0.3 </tspan>
<tspan x="10" y="2218">  │ │ ├─┬ minimatch@3.0.3 </tspan>
<tspan x="10" y="2234">  │ │ │ └─┬ brace-expansion@1.1.7 </tspan>
<tspan x="10" y="2250">  │ │ │   ├── balanced-match@0.4.2 </tspan>
<tspan x="10" y="2266">  │ │ │   └── concat-map@0.0.1 </tspan>
<tspan x="10" y="2282">  │ │ └── once@1.4.0 </tspan>
<tspan x="10" y="2298">  │ ├── path-is-absolute@1.0.1 </tspan>
<tspan x="10" y="2314">  │ ├─┬ rc@1.2.1 </tspan>
<tspan x="10" y="2330">  │ │ ├── ini@1.3.4 </tspan>
<tspan x="10" y="2346">  │ │ └── strip-json-comments@2.0.1 </tspan>
<tspan x="10" y="2362">  │ ├── semver@4.3.6 </tspan>
<tspan x="10" y="2378">  │ ├─┬ serve-favicon@2.4.2 </tspan>
<tspan x="10" y="2394">  │ │ └── ms@1.0.0 </tspan>
<tspan x="10" y="2410">  │ ├─┬ strong-data-uri@1.0.4 </tspan>
<tspan x="10" y="2426">  │ │ └── truncate@1.0.5 </tspan>
<tspan x="10" y="2442">  │ ├─┬ v8-debug@0.7.7 </tspan>
<tspan x="10" y="2458">  │ │ ├── nan@2.6.1 </tspan>
<tspan x="10" y="2474">  │ │ └─┬ node-pre-gyp@0.6.34 </tspan>
<tspan x="10" y="2490">  │ │   ├─┬ nopt@4.0.1 </tspan>
<tspan x="10" y="2506">  │ │   │ └── abbrev@1.1.0 </tspan>
<tspan x="10" y="2522">  │ │   ├─┬ npmlog@4.0.2 </tspan>
<tspan x="10" y="2538">  │ │   │ ├─┬ are-we-there-yet@1.1.2 </tspan>
<tspan x="10" y="2554">  │ │   │ │ └── delegates@1.0.0 </tspan>
<tspan x="10" y="2570">  │ │   │ ├── console-control-strings@1.1.0 </tspan>
<tspan x="10" y="2586">  │ │   │ ├─┬ gauge@2.7.3 </tspan>
<tspan x="10" y="2602">  │ │   │ │ ├── aproba@1.1.1 </tspan>
<tspan x="10" y="2618">  │ │   │ │ ├── has-unicode@2.0.1 </tspan>
<tspan x="10" y="2634">  │ │   │ │ ├── signal-exit@3.0.2 </tspan>
<tspan x="10" y="2650">  │ │   │ │ └── wide-align@1.1.0 </tspan>
<tspan x="10" y="2666">  │ │   │ └── set-blocking@2.0.0 </tspan>
<tspan x="10" y="2682">  │ │   ├─┬ request@2.81.0 </tspan>
<tspan x="10" y="2698">  │ │   │ ├── aws-sign2@0.6.0 </tspan>
<tspan x="10" y="2714">  │ │   │ ├── aws4@1.6.0 </tspan>
<tspan x="10" y="2730">  │ │   │ ├── caseless@0.12.0 </tspan>
<tspan x="10" y="2746">  │ │   │ ├── extend@3.0.0 </tspan>
<tspan x="10" y="2762">  │ │   │ ├── forever-agent@0.6.1 </tspan>
<tspan x="10" y="2778">  │ │   │ ├─┬ form-data@2.1.2 </tspan>
<tspan x="10" y="2794">  │ │   │ │ └── asynckit@0.4.0 </tspan>
<tspan x="10" y="2810">  │ │   │ ├─┬ har-validator@4.2.1 </tspan>
<tspan x="10" y="2826">  │ │   │ │ ├─┬ ajv@4.11.5 </tspan>
<tspan x="10" y="2842">  │ │   │ │ │ ├── co@4.6.0 </tspan>
<tspan x="10" y="2858">  │ │   │ │ │ └─┬ json-stable-stringify@1.0.1 </tspan>
<tspan x="10" y="2874">  │ │   │ │ │   └── jsonify@0.0.0 </tspan>
<tspan x="10" y="2890">  │ │   │ │ └── har-schema@1.0.5 </tspan>
<tspan x="10" y="2906">  │ │   │ ├─┬ hawk@3.1.3 </tspan>
<tspan x="10" y="2922">  │ │   │ │ ├── boom@2.10.1 </tspan>
<tspan x="10" y="2938">  │ │   │ │ ├── cryptiles@2.0.5 </tspan>
<tspan x="10" y="2954">  │ │   │ │ ├── hoek@2.16.3 </tspan>
<tspan x="10" y="2970">  │ │   │ │ └── sntp@1.0.9 </tspan>
<tspan x="10" y="2986">  │ │   │ ├─┬ http-signature@1.1.1 </tspan>
<tspan x="10" y="3002">  │ │   │ │ ├── assert-plus@0.2.0 </tspan>
<tspan x="10" y="3018">  │ │   │ │ ├─┬ jsprim@1.4.0 </tspan>
<tspan x="10" y="3034">  │ │   │ │ │ ├── assert-plus@1.0.0 </tspan>
<tspan x="10" y="3050">  │ │   │ │ │ ├── extsprintf@1.0.2 </tspan>
<tspan x="10" y="3066">  │ │   │ │ │ ├── json-schema@0.2.3 </tspan>
<tspan x="10" y="3082">  │ │   │ │ │ └── verror@1.3.6 </tspan>
<tspan x="10" y="3098">  │ │   │ │ └─┬ sshpk@1.11.0 </tspan>
<tspan x="10" y="3114">  │ │   │ │   ├── asn1@0.2.3 </tspan>
<tspan x="10" y="3130">  │ │   │ │   ├── assert-plus@1.0.0 </tspan>
<tspan x="10" y="3146">  │ │   │ │   ├── bcrypt-pbkdf@1.0.1 </tspan>
<tspan x="10" y="3162">  │ │   │ │   ├─┬ dashdash@1.14.1 </tspan>
<tspan x="10" y="3178">  │ │   │ │   │ └── assert-plus@1.0.0 </tspan>
<tspan x="10" y="3194">  │ │   │ │   ├── ecc-jsbn@0.1.1 </tspan>
<tspan x="10" y="3210">  │ │   │ │   ├─┬ getpass@0.1.6 </tspan>
<tspan x="10" y="3226">  │ │   │ │   │ └── assert-plus@1.0.0 </tspan>
<tspan x="10" y="3242">  │ │   │ │   ├── jodid25519@1.0.2 </tspan>
<tspan x="10" y="3258">  │ │   │ │   ├── jsbn@0.1.1 </tspan>
<tspan x="10" y="3274">  │ │   │ │   └── tweetnacl@0.14.5 </tspan>
<tspan x="10" y="3290">  │ │   │ ├── is-typedarray@1.0.0 </tspan>
<tspan x="10" y="3306">  │ │   │ ├── isstream@0.1.2 </tspan>
<tspan x="10" y="3322">  │ │   │ ├── json-stringify-safe@5.0.1 </tspan>
<tspan x="10" y="3338">  │ │   │ ├── oauth-sign@0.8.2 </tspan>
<tspan x="10" y="3354">  │ │   │ ├── performance-now@0.2.0 </tspan>
<tspan x="10" y="3370">  │ │   │ ├── safe-buffer@5.0.1 </tspan>
<tspan x="10" y="3386">  │ │   │ ├── stringstream@0.0.5 </tspan>
<tspan x="10" y="3402">  │ │   │ ├─┬ tough-cookie@2.3.2 </tspan>
<tspan x="10" y="3418">  │ │   │ │ └── punycode@1.4.1 </tspan>
<tspan x="10" y="3434">  │ │   │ ├── tunnel-agent@0.6.0 </tspan>
<tspan x="10" y="3450">  │ │   │ └── uuid@3.0.1 </tspan>
<tspan x="10" y="3466">  │ │   ├─┬ rimraf@2.6.1 </tspan>
<tspan x="10" y="3482">  │ │   │ └─┬ glob@7.1.1 </tspan>
<tspan x="10" y="3498">  │ │   │   └── fs.realpath@1.0.0 </tspan>
<tspan x="10" y="3514">  │ │   ├── semver@5.3.0 </tspan>
<tspan x="10" y="3530">  │ │   ├─┬ tar@2.2.1 </tspan>
<tspan x="10" y="3546">  │ │   │ ├── block-stream@0.0.9 </tspan>
<tspan x="10" y="3562">  │ │   │ └─┬ fstream@1.0.11 </tspan>
<tspan x="10" y="3578">  │ │   │   └── graceful-fs@4.1.11 </tspan>
<tspan x="10" y="3594">  │ │   └─┬ tar-pack@3.4.0 </tspan>
<tspan x="10" y="3610">  │ │     ├── fstream-ignore@1.0.5 </tspan>
<tspan x="10" y="3626">  │ │     ├─┬ readable-stream@2.2.8 </tspan>
<tspan x="10" y="3642">  │ │     │ ├── buffer-shims@1.0.0 </tspan>
<tspan x="10" y="3658">  │ │     │ ├── core-util-is@1.0.2 </tspan>
<tspan x="10" y="3674">  │ │     │ ├── isarray@1.0.0 </tspan>
<tspan x="10" y="3690">  │ │     │ ├── process-nextick-args@1.0.7 </tspan>
<tspan x="10" y="3706">  │ │     │ └── string_decoder@1.0.0 </tspan>
<tspan x="10" y="3722">  │ │     ├─┬ rimraf@2.6.1 </tspan>
<tspan x="10" y="3738">  │ │     │ └── glob@7.1.1 </tspan>
<tspan x="10" y="3754">  │ │     └── uid-number@0.0.6 </tspan>
<tspan x="10" y="3770">  │ ├── v8-profiler@5.6.5 </tspan>
<tspan x="10" y="3786">  │ ├─┬ which@1.2.14 </tspan>
<tspan x="10" y="3802">  │ │ └── isexe@2.0.0 </tspan>
<tspan x="10" y="3818">  │ ├─┬ ws@1.1.4 </tspan>
<tspan x="10" y="3834">  │ │ ├── options@0.0.6 </tspan>
<tspan x="10" y="3850">  │ │ └── ultron@1.0.2 </tspan>
<tspan x="10" y="3866">  │ └─┬ yargs@3.32.0 </tspan>
<tspan x="10" y="3882">  │   ├── camelcase@2.1.1 </tspan>
<tspan x="10" y="3898">  │   ├─┬ cliui@3.2.0 </tspan>
<tspan x="10" y="3914">  │   │ ├─┬ strip-ansi@3.0.1 </tspan>
<tspan x="10" y="3930">  │   │ │ └── ansi-regex@2.1.1 </tspan>
<tspan x="10" y="3946">  │   │ └── wrap-ansi@2.1.0 </tspan>
<tspan x="10" y="3962">  │   ├── decamelize@1.2.0 </tspan>
<tspan x="10" y="3978">  │   ├─┬ os-locale@1.4.0 </tspan>
<tspan x="10" y="3994">  │   │ └─┬ lcid@1.0.0 </tspan>
<tspan x="10" y="4010">  │   │   └── invert-kv@1.0.0 </tspan>
<tspan x="10" y="4026">  │   ├─┬ string-width@1.0.2 </tspan>
<tspan x="10" y="4042">  │   │ ├── code-point-at@1.1.0 </tspan>
<tspan x="10" y="4058">  │   │ └─┬ is-fullwidth-code-point@1.0.0 </tspan>
<tspan x="10" y="4074">  │   │   └── number-is-nan@1.0.1 </tspan>
<tspan x="10" y="4090">  │   ├── window-size@0.1.4 </tspan>
<tspan x="10" y="4106">  │   └── y18n@3.2.1 </tspan>
<tspan x="10" y="4122">  ├── qs@6.4.0 </tspan>
<tspan x="10" y="4138">  └─┬ url@0.11.0 </tspan>
<tspan x="10" y="4154">    ├── punycode@1.3.2 </tspan>
<tspan x="10" y="4170">    └── querystring@0.2.0</tspan>
</text>
</svg>
