<svg height="2302" width="720" xmlns="http://www.w3.org/2000/svg">
<rect height="2302" fill="#555" width="720"></rect>
<text fill="#7f7" font-family="Courier New" font-size="12" xml:space="preserve">
<tspan x="10" y="26"></tspan>
<tspan x="10" y="42">&gt; npmdoc-swagger-client@0.0.1 test /home/travis/build/npmdoc/node-npmdoc-swagger-client</tspan>
<tspan x="10" y="58">&gt; (set -e; export PORT=$(utility2 shServerPortRandom); utility2 test test.js)</tspan>
<tspan x="10" y="74"></tspan>
<tspan x="10" y="90"></tspan>
<tspan x="10" y="106">[MODE_BUILD=npmTest] - 2017-03-25T12:40:55Z - npm-testing /home/travis/build/npmdoc/node-npmdoc-\</tspan>
<tspan x="10" y="122">swagger-client</tspan>
<tspan x="10" y="138"></tspan>
<tspan x="10" y="154"></tspan>
<tspan x="10" y="170">covering $ /home/travis/.nvm/versions/node/v6.10.1/bin/node /home/travis/build/npmdoc/node-npmdo\</tspan>
<tspan x="10" y="186">c-swagger-client/test.js</tspan>
<tspan x="10" y="202">merging file:///home/travis/build/npmdoc/node-npmdoc-swagger-client/tmp/build/test-report.json t\</tspan>
<tspan x="10" y="218">o test-report</tspan>
<tspan x="10" y="234">&gt; server listening on http-port 41970</tspan>
<tspan x="10" y="250">created apidoc file:///home/travis/build/npmdoc/node-npmdoc-swagger-client/tmp/build/apidoc.html</tspan>
<tspan x="10" y="266"></tspan>
<tspan x="10" y="282"></tspan>
<tspan x="10" y="298">browserTest - created electron entry-page /home/travis/build/npmdoc/node-npmdoc-swagger-client/t\</tspan>
<tspan x="10" y="314">mp/electron.15b057be1d50.a68e28c660814.html</tspan>
<tspan x="10" y="330"></tspan>
<tspan x="10" y="346">[node test-case 1 of 6 passed] - testCase_buildLib_default</tspan>
<tspan x="10" y="362">[node test-case 2 of 6 passed] - testCase_buildReadme_default</tspan>
<tspan x="10" y="378">[node test-case 3 of 6 passed] - testCase_buildTest_default</tspan>
<tspan x="10" y="394"></tspan>
<tspan x="10" y="410">browserTest - created electron entry-page /home/travis/build/npmdoc/node-npmdoc-swagger-client/t\</tspan>
<tspan x="10" y="426">mp/electron.15b057be22a0.dc523d0ac59ec.html</tspan>
<tspan x="10" y="442"></tspan>
<tspan x="10" y="458">Xlib:  extension "RANDR" missing on display ":99.0".</tspan>
<tspan x="10" y="474">Xlib:  extension "RANDR" missing on display ":99.0".</tspan>
<tspan x="10" y="490">&gt; server listening on http-port 37117</tspan>
<tspan x="10" y="506"></tspan>
<tspan x="10" y="522">/home/travis/build/npmdoc/node-npmdoc-swagger-client/node_modules/utility2/lib.utility2.sh.html.\</tspan>
<tspan x="10" y="538">js</tspan>
<tspan x="10" y="554"> #1 Line too long.</tspan>
<tspan x="10" y="570">    process.stdout.write('export npm_package_' + key.replace((/\W/g), '_') + '=' + JSON.stringif\</tspan>
<tspan x="10" y="586">y(value) + ';'); // Line 1445, Pos 116</tspan>
<tspan x="10" y="602"></tspan>
<tspan x="10" y="618">merging file:///home/travis/build/npmdoc/node-npmdoc-swagger-client/tmp/build/test-report.json t\</tspan>
<tspan x="10" y="634">o test-report</tspan>
<tspan x="10" y="650">Xlib:  extension "RANDR" missing on display ":99.0".</tspan>
<tspan x="10" y="666">[4900:0325/124057:WARNING:audio_manager.cc(314)] Multiple instances of AudioManager detected</tspan>
<tspan x="10" y="682">[4900:0325/124057:WARNING:audio_manager.cc(275)] Multiple instances of AudioManager detected</tspan>
<tspan x="10" y="698"></tspan>
<tspan x="10" y="714">/home/travis/build/npmdoc/node-npmdoc-swagger-client/node_modules/utility2/lib.utility2.sh.html.\</tspan>
<tspan x="10" y="730">js</tspan>
<tspan x="10" y="746"> #1 Line too long.</tspan>
<tspan x="10" y="762">    process.stdout.write('export npm_package_' + key.replace((/\W/g), '_') + '=' + JSON.stringif\</tspan>
<tspan x="10" y="778">y(value) + ';'); // Line 1445, Pos 116</tspan>
<tspan x="10" y="794"></tspan>
<tspan x="10" y="810">[4929:0325/124057:ERROR:sandbox_linux.cc(343)] InitializeSandbox() called with multiple threads \</tspan>
<tspan x="10" y="826">in process gpu-process. </tspan>
<tspan x="10" y="842">[4900:0325/124057:ERROR:browser_gpu_channel_host_factory.cc(131)] Failed to create channel.</tspan>
<tspan x="10" y="858">merging file:///home/travis/build/npmdoc/node-npmdoc-swagger-client/tmp/build/test-report.json t\</tspan>
<tspan x="10" y="874">o test-report</tspan>
<tspan x="10" y="890">Xlib:  extension "RANDR" missing on display ":99.0".</tspan>
<tspan x="10" y="906">[4905:0325/124057:WARNING:audio_manager.cc(314)] Multiple instances of AudioManager detected</tspan>
<tspan x="10" y="922">[4905:0325/124057:WARNING:audio_manager.cc(275)] Multiple instances of AudioManager detected</tspan>
<tspan x="10" y="938">[4959:0325/124057:ERROR:sandbox_linux.cc(343)] InitializeSandbox() called with multiple threads \</tspan>
<tspan x="10" y="954">in process gpu-process. </tspan>
<tspan x="10" y="970">[4905:0325/124058:ERROR:browser_gpu_channel_host_factory.cc(131)] Failed to create channel.</tspan>
<tspan x="10" y="986"></tspan>
<tspan x="10" y="1002">browserTest - opened url file:///home/travis/build/npmdoc/node-npmdoc-swagger-client/tmp/build/a\</tspan>
<tspan x="10" y="1018">pidoc.html</tspan>
<tspan x="10" y="1034"></tspan>
<tspan x="10" y="1050"></tspan>
<tspan x="10" y="1066">browserTest - opened url http://127.0.0.1:41970?modeTest=1</tspan>
<tspan x="10" y="1082"></tspan>
<tspan x="10" y="1098">[4905:0325/124059:INFO:CONSOLE(203)] "----------|-----------|-----------|-----------|-----------\</tspan>
<tspan x="10" y="1114">|</tspan>
<tspan x="10" y="1130">File      |   % Stmts |% Branches |   % Funcs |   % Lines |</tspan>
<tspan x="10" y="1146">----------|-----------|-----------|-----------|-----------|</tspan>
<tspan x="10" y="1162">----------|-----------|-----------|-----------|-----------|</tspan>
<tspan x="10" y="1178">All files |       100 |       100 |       100 |       100 |</tspan>
<tspan x="10" y="1194">----------|-----------|-----------|-----------|-----------|</tspan>
<tspan x="10" y="1210">", source: file:///home/travis/build/npmdoc/node-npmdoc-swagger-client/tmp/electron.15b057be22a0\</tspan>
<tspan x="10" y="1226">.dc523d0ac59ec.html (203)</tspan>
<tspan x="10" y="1242">[4905:0325/124059:INFO:CONSOLE(203)] "created coverage file:///tmp/build/coverage.html/index.htm\</tspan>
<tspan x="10" y="1258">l", source: file:///home/travis/build/npmdoc/node-npmdoc-swagger-client/tmp/electron.15b057be22a\</tspan>
<tspan x="10" y="1274">0.dc523d0ac59ec.html (203)</tspan>
<tspan x="10" y="1290">[node test-case 4 of 6 passed] - testCase_buildApp_default</tspan>
<tspan x="10" y="1306"></tspan>
<tspan x="10" y="1322">browserTest - created screen-capture file:///home/travis/build/npmdoc/node-npmdoc-swagger-client\</tspan>
<tspan x="10" y="1338">/tmp/build/screen-capture.npmTest.browser._2Fhome_2Ftravis_2Fbuild_2Fnpmdoc_2Fnode-npmdoc-swagge\</tspan>
<tspan x="10" y="1354">r-client_2Ftmp_2Fbuild_2Fapidoc.html.png</tspan>
<tspan x="10" y="1370"></tspan>
<tspan x="10" y="1386"></tspan>
<tspan x="10" y="1402">browserTest - exit-code 0 - file:///home/travis/build/npmdoc/node-npmdoc-swagger-client/tmp/buil\</tspan>
<tspan x="10" y="1418">d/apidoc.html</tspan>
<tspan x="10" y="1434"></tspan>
<tspan x="10" y="1450">[node test-case 5 of 6 passed] - testCase_buildApidoc_default</tspan>
<tspan x="10" y="1466"></tspan>
<tspan x="10" y="1482">browserTest - created screen-capture file:///home/travis/build/npmdoc/node-npmdoc-swagger-client\</tspan>
<tspan x="10" y="1498">/tmp/build/screen-capture.npmTest.browser..png</tspan>
<tspan x="10" y="1514"></tspan>
<tspan x="10" y="1530"></tspan>
<tspan x="10" y="1546">browserTest - exit-code 0 - http://127.0.0.1:41970?modeTest=1</tspan>
<tspan x="10" y="1562"></tspan>
<tspan x="10" y="1578"></tspan>
<tspan x="10" y="1594">browserTest - merged coverage from /home/travis/build/npmdoc/node-npmdoc-swagger-client/tmp/cove\</tspan>
<tspan x="10" y="1610">rage.npmTest.browser.%2F.json</tspan>
<tspan x="10" y="1626"></tspan>
<tspan x="10" y="1642"></tspan>
<tspan x="10" y="1658">browserTest - merging test-report from /home/travis/build/npmdoc/node-npmdoc-swagger-client/tmp/\</tspan>
<tspan x="10" y="1674">test-report.npmTest.browser.%2F.json</tspan>
<tspan x="10" y="1690"></tspan>
<tspan x="10" y="1706">[node test-case 6 of 6 passed] - testCase_webpage_default</tspan>
<tspan x="10" y="1722">-----------------------------------|-----------|-----------|-----------|-----------|</tspan>
<tspan x="10" y="1738">File                               |   % Stmts |% Branches |   % Funcs |   % Lines |</tspan>
<tspan x="10" y="1754">-----------------------------------|-----------|-----------|-----------|-----------|</tspan>
<tspan x="10" y="1770">   node-npmdoc-swagger-client/     |       100 |       100 |       100 |       100 |</tspan>
<tspan x="10" y="1786">      example.js                   |       100 |       100 |       100 |       100 |</tspan>
<tspan x="10" y="1802">      lib.npmdoc_swagger_client.js |       100 |       100 |       100 |       100 |</tspan>
<tspan x="10" y="1818">      test.js                      |       100 |       100 |       100 |       100 |</tspan>
<tspan x="10" y="1834">-----------------------------------|-----------|-----------|-----------|-----------|</tspan>
<tspan x="10" y="1850">All files                          |       100 |       100 |       100 |       100 |</tspan>
<tspan x="10" y="1866">-----------------------------------|-----------|-----------|-----------|-----------|</tspan>
<tspan x="10" y="1882"></tspan>
<tspan x="10" y="1898">created coverage file:///home/travis/build/npmdoc/node-npmdoc-swagger-client/tmp/build/coverage.\</tspan>
<tspan x="10" y="1914">html/index.html</tspan>
<tspan x="10" y="1930"></tspan>
<tspan x="10" y="1946">/home/travis/build/npmdoc/node-npmdoc-swagger-client/node_modules/utility2/lib.utility2.sh.html.\</tspan>
<tspan x="10" y="1962">js</tspan>
<tspan x="10" y="1978"> #1 Line too long.</tspan>
<tspan x="10" y="1994">    process.stdout.write('export npm_package_' + key.replace((/\W/g), '_') + '=' + JSON.stringif\</tspan>
<tspan x="10" y="2010">y(value) + ';'); // Line 1445, Pos 116</tspan>
<tspan x="10" y="2026"></tspan>
<tspan x="10" y="2042">merging file:///home/travis/build/npmdoc/node-npmdoc-swagger-client/tmp/build/test-report.json t\</tspan>
<tspan x="10" y="2058">o test-report</tspan>
<tspan x="10" y="2074"></tspan>
<tspan x="10" y="2090">-------------------------------------------------------</tspan>
<tspan x="10" y="2106">| test-report - buildNpmdoc - node - linux v6.10.1 - 2017-03-25T12:40:45.355Z</tspan>
<tspan x="10" y="2122">|   16606 ms            0 failed        6 passed      |</tspan>
<tspan x="10" y="2138">-------------------------------------------------------</tspan>
<tspan x="10" y="2154"></tspan>
<tspan x="10" y="2170">created test-report file:///home/travis/build/npmdoc/node-npmdoc-swagger-client/tmp/build/test-r\</tspan>
<tspan x="10" y="2186">eport.html</tspan>
<tspan x="10" y="2202"></tspan>
<tspan x="10" y="2218"></tspan>
<tspan x="10" y="2234">npmTest - 0 failed tests</tspan>
<tspan x="10" y="2250"></tspan>
<tspan x="10" y="2266"></tspan>
<tspan x="10" y="2282">[MODE_BUILD=npmTest] - 2017-03-25T12:41:04Z - EXIT_CODE - 0</tspan>
</text>
</svg>
